<svg id="Layer_1" data-name="Layer 1" xmlns="http://www.w3.org/2000/svg" viewBox="0 0 144.09329 53.98443"><defs><style>.cls-1{fill:#22346c;}.cls-2{fill:#fdce07;}.cls-3{fill:#fbcd13;}</style></defs><title>icon</title><g id="_Group_" data-name="&lt;Group&gt;"><path id="_Compound_Path_" data-name="&lt;Compound Path&gt;" class="cls-1" d="M72.01339,30.70275a4.48757,4.48757,0,0,1,2.26155,1.54841,4.60578,4.60578,0,0,1,.92635,2.97529,6.80213,6.80213,0,0,1-.39485,2.35289,4.38269,4.38269,0,0,1-1.3356,1.86713,6.82343,6.82343,0,0,1-2.5353,1.24468,14.79146,14.79146,0,0,1-3.99242.45538H49.092V28.79007H67.06463a2.5352,2.5352,0,0,0,1.22969-.28837,1.11465,1.11465,0,0,0,.53114-1.07781,1.04536,1.04536,0,0,0-.54633-1.03226,2.67907,2.67907,0,0,0-1.2145-.27318H49.092l4.25021-5.28264H66.79129a14.32941,14.32941,0,0,1,3.29424.3491,7.52324,7.52324,0,0,1,2.51974,1.06264,4.9472,4.9472,0,0,1,1.60931,1.7608,5.10211,5.10211,0,0,1,.56152,2.444,4.89481,4.89481,0,0,1-.243,1.60914,4.83178,4.83178,0,0,1-.62223,1.22949,3.62724,3.62724,0,0,1-.88041.88041A4.26352,4.26352,0,0,1,72.01339,30.70275ZM55.40672,33.13154v2.79309h11.5668a2.39757,2.39757,0,0,0,1.48784-.36427,1.28052,1.28052,0,0,0,.45521-1.06264,1.20448,1.20448,0,0,0-.45521-1.01707,2.47987,2.47987,0,0,0-1.48784-.3491Z"/><path id="_Compound_Path_2" data-name="&lt;Compound Path&gt;" class="cls-1" d="M98.00157,33.58695Q97.333,32.403,96.8482,31.50721q-.48633-.89491-.88081-1.60895-.39523-.713-.68336-1.29025-.28819-.57658-.56113-1.12338-.24376.5464-.53151,1.12338-.28933.57688-.66819,1.29025-.37929.71355-.86485,1.594-.48633.88071-1.15413,2.06436L88.256,39.325a4.71389,4.71389,0,0,1-1.38117,1.5636,3.50732,3.50732,0,0,1-2.07974.59187,3.59559,3.59559,0,0,1-2.14045-.683,3.82107,3.82107,0,0,1-1.38117-2.1101L76.11209,20.83581h6.28435l1.91268,7.07385q.48518,1.73064.80485,3.03605.31892,1.30553.56113,2.55012.48633-1.06236,1.13894-2.35289.65263-1.28984,1.71528-3.26366l2.732-5.10041a5.85806,5.85806,0,0,1,.78966-1.19913,3.2219,3.2219,0,0,1,.83523-.68316,2.79541,2.79541,0,0,1,.92559-.31872,6.72529,6.72529,0,0,1,1.03266-.07593,6.94176,6.94176,0,0,1,1.06225.07593,2.81154,2.81154,0,0,1,.92635.31872,3.47611,3.47611,0,0,1,.84966.68316,5.47857,5.47857,0,0,1,.80485,1.19913l2.70158,5.13079q.57633,1.06321,1.00227,1.8671.42482.805.75855,1.45729.33372.65319.59224,1.19933.25741.5464.50115,1.06245.24261-1.21383.59151-2.55012.34965-1.33571.80486-3.03605l1.91267-7.07385h6.13287l-5.25285,17.85155a3.82107,3.82107,0,0,1-1.38117,2.1101,3.59394,3.59394,0,0,1-2.14045.683,3.52088,3.52088,0,0,1-2.04936-.57671,4.76422,4.76422,0,0,1-1.41153-1.57876Z"/><path id="_Compound_Path_3" data-name="&lt;Compound Path&gt;" class="cls-1" d="M134.42573,28.87479a10.07355,10.07355,0,0,1,5.864,1.42657,4.94078,4.94078,0,0,1,2.00695,4.31193,7.87843,7.87843,0,0,1-.50191,2.88454,5.10261,5.10261,0,0,1-1.59914,2.16381,7.712,7.712,0,0,1-2.8065,1.34856,15.5842,15.5842,0,0,1-4.09233.47015H113.76058l4.17076-5.39343h15.86737a3.08752,3.08752,0,0,0,1.69324-.36074,1.31526,1.31526,0,0,0,.53289-1.17563,1.27638,1.27638,0,0,0-.53289-1.16033,3.20728,3.20728,0,0,0-1.69324-.34507H122.384a12.37615,12.37615,0,0,1-3.512-.43881,7.0534,7.0534,0,0,1-2.44612-1.22306,4.814,4.814,0,0,1-1.44227-1.89715,6.25954,6.25954,0,0,1-.47057-2.46146,6.73785,6.73785,0,0,1,.51761-2.6814,5.16769,5.16769,0,0,1,1.59914-2.054,7.88014,7.88014,0,0,1,2.79083-1.3168,15.56192,15.56192,0,0,1,4.09233-.47055h18.219l-4.17037,5.45616H123.01145a3.49163,3.49163,0,0,0-1.678.31371,1.18827,1.18827,0,0,0-.54858,1.129,1.22444,1.22444,0,0,0,.54858,1.14463,3.34362,3.34362,0,0,0,1.678.3294Z"/></g><g id="_Group_2" data-name="&lt;Group&gt;"><path id="_Path_" data-name="&lt;Path&gt;" class="cls-2" d="M56.01562,6.74787l-20.9713,26.0656L9.51,26.232a4.58193,4.58193,0,0,1,.07857.64086,3.868,3.868,0,0,1-1.34814,3.02148l27.04589,6.9712a1.9313,1.9313,0,0,0,1.98722-.65971L58.954,9.2587A4.13883,4.13883,0,0,1,56.01562,6.74787Z"/></g><g id="_Group_3" data-name="&lt;Group&gt;"><path id="_Path_2" data-name="&lt;Path&gt;" class="cls-1" d="M37.58939,34.35009l-4.725-13.343a4.2463,4.2463,0,0,1-2.855,1.17442,4.09524,4.09524,0,0,1-.86006-.09117l4.52029,12.76475L28.70537,44.545c.06685-.00358.13328-.01085.20024-.01085a4.02474,4.02474,0,0,1,3.28226,1.68673L37.48779,35.8757A1.93193,1.93193,0,0,0,37.58939,34.35009Z"/></g><circle id="_Path_3" data-name="&lt;Path&gt;" class="cls-2" cx="36.30294" cy="34.99498" r="5.53064"/><g id="_Group_4" data-name="&lt;Group&gt;"><path id="_Compound_Path_4" data-name="&lt;Compound Path&gt;" class="cls-2" d="M59.48332,9.89437a4.15089,4.15089,0,1,1,4.151-4.151A4.1556,4.1556,0,0,1,59.48332,9.89437Zm0-7.19794a3.047,3.047,0,1,0,3.04713,3.047A3.05034,3.05034,0,0,0,59.48332,2.69643Z"/></g><g id="_Group_5" data-name="&lt;Group&gt;"><path id="_Compound_Path_5" data-name="&lt;Compound Path&gt;" class="cls-1" d="M30.23179,22.86426a4.15081,4.15081,0,1,1,4.151-4.15081A4.15545,4.15545,0,0,1,30.23179,22.86426Zm0-7.19777a3.04695,3.04695,0,1,0,3.04713,3.047A3.05037,3.05037,0,0,0,30.23179,15.6665Z"/></g><g id="_Group_6" data-name="&lt;Group&gt;"><path id="_Compound_Path_6" data-name="&lt;Compound Path&gt;" class="cls-2" d="M5.94762,31.41908a4.15089,4.15089,0,1,1,4.15081-4.151A4.15574,4.15574,0,0,1,5.94762,31.41908Zm0-7.19794a3.047,3.047,0,1,0,3.047,3.047A3.05051,3.05051,0,0,0,5.94762,24.22114Z"/></g><g id="_Group_7" data-name="&lt;Group&gt;"><path id="_Compound_Path_7" data-name="&lt;Compound Path&gt;" class="cls-1" d="M29.12795,52.39185a4.15089,4.15089,0,1,1,4.151-4.15081A4.15542,4.15542,0,0,1,29.12795,52.39185Zm0-7.19794A3.047,3.047,0,1,0,32.17508,48.241,3.05049,3.05049,0,0,0,29.12795,45.19391Z"/></g><path class="cls-3" d="M51.36973,45.705a4.35535,4.35535,0,0,1,1.11139.12348,2.11068,2.11068,0,0,1,.75707.35228,1.36553,1.36553,0,0,1,.43217.55328,1.86591,1.86591,0,0,1,.13722.73179,1.44266,1.44266,0,0,1-.06863.44605,1.29139,1.29139,0,0,1-.21269.3979,1.591,1.591,0,0,1-.36588.33606,2.21284,2.21284,0,0,1-.52828.25631q1.36286.30645,1.363,1.47262a1.87775,1.87775,0,0,1-.16.77769,1.7161,1.7161,0,0,1-.46655.61515,2.23217,2.23217,0,0,1-.75474.4048,3.296,3.296,0,0,1-1.02448.14632H49.092V45.705Zm-1.04735.95124v1.91205h.97872a1.64434,1.64434,0,0,0,.95369-.2288.82989.82989,0,0,0,.32246-.72737.8617.8617,0,0,0-.29275-.73618,1.52909,1.52909,0,0,0-.91477-.2197Zm1.2441,4.7019a1.75056,1.75056,0,0,0,.57626-.08223.99882.99882,0,0,0,.37275-.21942.80661.80661,0,0,0,.20132-.32037,1.20854,1.20854,0,0,0,.06172-.38858,1.03458,1.03458,0,0,0-.06863-.38666.72453.72453,0,0,0-.215-.29258,1.004,1.004,0,0,0-.37731-.18535,2.10368,2.10368,0,0,0-.55576-.06409H50.32238v1.93928Z"/><path class="cls-3" d="M56.04414,50.11405a2.22871,2.22871,0,0,0,.12816.6245,1.27723,1.27723,0,0,0,.26524.43451,1.04229,1.04229,0,0,0,.391.256,1.422,1.422,0,0,0,.50091.0847,1.5551,1.5551,0,0,0,.47342-.06409,2.203,2.203,0,0,0,.3476-.1419q.14847-.07755.26068-.14162a.4376.4376,0,0,1,.21725-.06406.23372.23372,0,0,1,.21038.105l.32477.41167a1.87753,1.87753,0,0,1-.42088.36822,2.34717,2.34717,0,0,1-.487.23789,2.65555,2.65555,0,0,1-.51687.12568,3.69022,3.69022,0,0,1-.51.03655,2.51043,2.51043,0,0,1-.91024-.16223,2.03746,2.03746,0,0,1-.73176-.48015,2.25277,2.25277,0,0,1-.48936-.78679,3.04382,3.04382,0,0,1-.17848-1.08624,2.599,2.599,0,0,1,.1555-.90337,2.17143,2.17143,0,0,1,.44605-.73644,2.09908,2.09908,0,0,1,.709-.49609,2.33249,2.33249,0,0,1,.94448-.18315,2.29527,2.29527,0,0,1,.81866.1419,1.78705,1.78705,0,0,1,.64489.41386,1.91723,1.91723,0,0,1,.42307.6677,2.48851,2.48851,0,0,1,.1533.90337.73162.73162,0,0,1-.055.34541.22735.22735,0,0,1-.21038.0891Zm2.15434-.68147a1.36069,1.36069,0,0,0-.06175-.41386.9854.9854,0,0,0-.18521-.34071.86145.86145,0,0,0-.31336-.231,1.07642,1.07642,0,0,0-.44138-.08468,1.04671,1.04671,0,0,0-.77068.27912,1.36739,1.36739,0,0,0-.359.79115Z"/><path class="cls-3" d="M71.80567,45.705,69.752,52.31871H68.64056l-1.44525-4.51906a3.06674,3.06674,0,0,1-.10985-.40232c-.0183.07617-.03658.148-.05488.21477q-.02741.10108-.05939.18754L65.512,52.31871H64.39612L62.347,45.705h1.02919a.45417.45417,0,0,1,.26757.07536.36415.36415,0,0,1,.14409.20351l1.12515,3.9564q.0365.14645.07082.3179t.07093.35915q.03654-.19223.08-.36135t.09377-.3157l1.299-3.9564a.43437.43437,0,0,1,.14409-.192.40434.40434,0,0,1,.263-.0869H67.296a.41352.41352,0,0,1,.2607.07783.47565.47565,0,0,1,.15082.201l1.29442,3.9564a5.71465,5.71465,0,0,1,.1738.65421q.05939-.36132.13269-.65421l1.12516-3.9564a.34278.34278,0,0,1,.13942-.19664.44069.44069,0,0,1,.26757-.08223Z"/><path class="cls-3" d="M74.02407,46.2583a.6439.6439,0,0,1-.05953.27445.745.745,0,0,1-.38872.37729.70669.70669,0,0,1-.28351.05722A.67958.67958,0,0,1,73.0155,46.91a.72813.72813,0,0,1-.22632-.15316.73893.73893,0,0,1-.1533-.22412.66516.66516,0,0,1-.05719-.27445.709.709,0,0,1,.05719-.28351.72373.72373,0,0,1,.1533-.22855.73375.73375,0,0,1,.22632-.15344.68422.68422,0,0,1,.27681-.05719.71149.71149,0,0,1,.28351.05719.75654.75654,0,0,1,.231.15344.73766.73766,0,0,1,.15772.22855A.68607.68607,0,0,1,74.02407,46.2583Zm-.15553,1.36755v4.69286H72.73418V47.62585Z"/><path class="cls-3" d="M76.38865,48.44012a2.02125,2.02125,0,0,1,.52138-.6608,1.11038,1.11038,0,0,1,.71348-.24037.872.872,0,0,1,.52141.1419l-.07316.84617a.21865.21865,0,0,1-.06626.11661.18377.18377,0,0,1-.11661.03438,1.34782,1.34782,0,0,1-.20362-.02284,1.55712,1.55712,0,0,0-.2629-.02309.94717.94717,0,0,0-.334.055.83554.83554,0,0,0-.2629.15784,1.074,1.074,0,0,0-.20582.24916,2.41859,2.41859,0,0,0-.16693.33383v2.8908H75.32289V47.62585h.6633a.27331.27331,0,0,1,.33383.28379Z"/><path class="cls-3" d="M79.77318,50.11405a2.22878,2.22878,0,0,0,.12816.6245,1.27726,1.27726,0,0,0,.26524.43451,1.04228,1.04228,0,0,0,.391.256,1.42211,1.42211,0,0,0,.50094.0847,1.55491,1.55491,0,0,0,.47339-.06409,2.203,2.203,0,0,0,.3476-.1419q.14848-.07755.2607-.14162a.43744.43744,0,0,1,.21725-.06406.2337.2337,0,0,1,.21035.105l.32477.41167a1.87692,1.87692,0,0,1-.42088.36822,2.34653,2.34653,0,0,1-.487.23789,2.65584,2.65584,0,0,1-.51685.12568,3.6909,3.6909,0,0,1-.51.03655,2.51043,2.51043,0,0,1-.91024-.16223,2.03748,2.03748,0,0,1-.73176-.48015,2.25358,2.25358,0,0,1-.48936-.78679,3.04382,3.04382,0,0,1-.17848-1.08624,2.59906,2.59906,0,0,1,.1555-.90337,2.17143,2.17143,0,0,1,.44605-.73644,2.09909,2.09909,0,0,1,.709-.49609,2.33249,2.33249,0,0,1,.94448-.18315,2.29515,2.29515,0,0,1,.81866.1419,1.7871,1.7871,0,0,1,.64489.41386,1.91728,1.91728,0,0,1,.42307.6677,2.4885,2.4885,0,0,1,.15333.90337.73153.73153,0,0,1-.055.34541.2273.2273,0,0,1-.21035.0891Zm2.15434-.68147a1.36068,1.36068,0,0,0-.06173-.41386.98545.98545,0,0,0-.18524-.34071.861.861,0,0,0-.31336-.231,1.07637,1.07637,0,0,0-.44135-.08468,1.04682,1.04682,0,0,0-.77071.27912,1.36737,1.36737,0,0,0-.359.79115Z"/><path class="cls-3" d="M85.23424,45.52212v6.7966H84.10456v-6.7966Z"/><path class="cls-3" d="M87.53473,50.11405a2.22869,2.22869,0,0,0,.12815.6245,1.27723,1.27723,0,0,0,.26524.43451,1.04227,1.04227,0,0,0,.391.256,1.42211,1.42211,0,0,0,.50093.0847,1.55491,1.55491,0,0,0,.47339-.06409,2.20317,2.20317,0,0,0,.34761-.1419q.14847-.07755.2607-.14162a.43744.43744,0,0,1,.21725-.06406.2337.2337,0,0,1,.21035.105l.32477.41167a1.877,1.877,0,0,1-.42087.36822,2.34657,2.34657,0,0,1-.487.23789,2.65577,2.65577,0,0,1-.51685.12568,3.69089,3.69089,0,0,1-.51.03655,2.51043,2.51043,0,0,1-.91024-.16223,2.03743,2.03743,0,0,1-.73176-.48015,2.25355,2.25355,0,0,1-.48936-.78679,3.04382,3.04382,0,0,1-.17848-1.08624,2.599,2.599,0,0,1,.1555-.90337,2.17143,2.17143,0,0,1,.44605-.73644,2.09906,2.09906,0,0,1,.709-.49609,2.33249,2.33249,0,0,1,.94448-.18315,2.29516,2.29516,0,0,1,.81866.1419,1.78707,1.78707,0,0,1,.64489.41386,1.91725,1.91725,0,0,1,.42307.6677,2.4885,2.4885,0,0,1,.15333.90337.73158.73158,0,0,1-.055.34541.22731.22731,0,0,1-.21035.0891Zm2.15434-.68147a1.36068,1.36068,0,0,0-.06173-.41386.98545.98545,0,0,0-.18524-.34071.861.861,0,0,0-.31336-.231,1.07638,1.07638,0,0,0-.44135-.08468,1.04682,1.04682,0,0,0-.77071.27912,1.36739,1.36739,0,0,0-.359.79115Z"/><path class="cls-3" d="M94.71577,48.54079a.30256.30256,0,0,1-.09611.10284.24887.24887,0,0,1-.128.02971.40325.40325,0,0,1-.17614-.04565q-.09386-.04579-.21725-.10287a1.98436,1.98436,0,0,0-.28132-.10312,1.35706,1.35706,0,0,0-.37275-.04565.85767.85767,0,0,0-.52374.1419.4413.4413,0,0,0-.18974.37041.35332.35332,0,0,0,.09831.25383.8847.8847,0,0,0,.2607.18067,2.51012,2.51012,0,0,0,.36822.13942q.20583.06188.41854.135t.41843.16693a1.46692,1.46692,0,0,1,.36822.23787,1.04739,1.04739,0,0,1,.359.83024,1.58467,1.58467,0,0,1-.12114.62422,1.348,1.348,0,0,1-.359.49392,1.69354,1.69354,0,0,1-.58781.32477,2.75517,2.75517,0,0,1-1.28068.07313,2.76992,2.76992,0,0,1-.44357-.12126,2.44018,2.44018,0,0,1-.39336-.18287,1.89919,1.89919,0,0,1-.3179-.2288l.26068-.42983a.36741.36741,0,0,1,.11895-.11881.33308.33308,0,0,1,.1738-.04125.36553.36553,0,0,1,.19895.05942q.09365.05939.21725.12816a1.95073,1.95073,0,0,0,.29041.12813,1.27882,1.27882,0,0,0,.42307.05942,1.09393,1.09393,0,0,0,.34541-.04813.73042.73042,0,0,0,.23773-.12568.47421.47421,0,0,0,.13722-.18067.54247.54247,0,0,0,.04345-.21286.37914.37914,0,0,0-.09831-.26977.85914.85914,0,0,0-.2607-.18287,2.50886,2.50886,0,0,0-.37042-.1397q-.20833-.06146-.42544-.13474a3.875,3.875,0,0,1-.42527-.17161,1.44217,1.44217,0,0,1-.37056-.24916,1.1279,1.1279,0,0,1-.2607-.3707,1.29166,1.29166,0,0,1-.09831-.53045,1.35342,1.35342,0,0,1,.11424-.54892,1.29148,1.29148,0,0,1,.3362-.45512,1.67285,1.67285,0,0,1,.55342-.311,2.31093,2.31093,0,0,1,.76614-.11658,2.3454,2.3454,0,0,1,.88275.16,1.99916,1.99916,0,0,1,.66328.421Z"/><path class="cls-3" d="M99.0379,48.54079a.30253.30253,0,0,1-.09611.10284.2488.2488,0,0,1-.128.02971.40325.40325,0,0,1-.17614-.04565q-.09381-.04579-.21725-.10287a1.98179,1.98179,0,0,0-.28132-.10312,1.35691,1.35691,0,0,0-.37275-.04565.85774.85774,0,0,0-.52375.1419.4413.4413,0,0,0-.18974.37041.35332.35332,0,0,0,.09831.25383.8847.8847,0,0,0,.2607.18067,2.51135,2.51135,0,0,0,.36822.13942q.20583.06188.41854.135t.41843.16693a1.46688,1.46688,0,0,1,.36821.23787,1.04738,1.04738,0,0,1,.359.83024,1.58467,1.58467,0,0,1-.12114.62422,1.348,1.348,0,0,1-.359.49392,1.69357,1.69357,0,0,1-.58781.32477,2.75506,2.75506,0,0,1-1.28065.07313,2.7682,2.7682,0,0,1-.44357-.12126,2.44027,2.44027,0,0,1-.39339-.18287,1.90026,1.90026,0,0,1-.3179-.2288l.2607-.42983a.36706.36706,0,0,1,.11892-.11881.33308.33308,0,0,1,.1738-.04125.36564.36564,0,0,1,.199.05942q.09364.05939.21725.12816a1.949,1.949,0,0,0,.29038.12813,1.27882,1.27882,0,0,0,.42307.05942,1.09393,1.09393,0,0,0,.34541-.04813.73013.73013,0,0,0,.23773-.12568.47457.47457,0,0,0,.13725-.18067.54247.54247,0,0,0,.04345-.21286.37916.37916,0,0,0-.09833-.26977.85912.85912,0,0,0-.2607-.18287,2.5075,2.5075,0,0,0-.37041-.1397q-.20828-.06146-.42541-.13474a3.87314,3.87314,0,0,1-.4253-.17161,1.44314,1.44314,0,0,1-.37056-.24916,1.12794,1.12794,0,0,1-.2607-.3707,1.29162,1.29162,0,0,1-.09831-.53045,1.3534,1.3534,0,0,1,.11427-.54892,1.29137,1.29137,0,0,1,.33617-.45512,1.6728,1.6728,0,0,1,.55342-.311,2.31093,2.31093,0,0,1,.76615-.11658,2.34538,2.34538,0,0,1,.88275.16,1.9993,1.9993,0,0,1,.6633.421Z"/><path class="cls-3" d="M106.7219,46.90783a.423.423,0,0,1-.11658.13942.25844.25844,0,0,1-.15319.04345.39434.39434,0,0,1-.20816-.07065q-.11223-.071-.26757-.15786a2.20357,2.20357,0,0,0-.36357-.15784,1.52784,1.52784,0,0,0-.49167-.071,1.46452,1.46452,0,0,0-.44825.06187.93833.93833,0,0,0-.32246.17132.68632.68632,0,0,0-.19442.26318.86177.86177,0,0,0-.06406.33606.58445.58445,0,0,0,.13035.38883,1.08685,1.08685,0,0,0,.34538.26538,3.21317,3.21317,0,0,0,.48936.19664q.27431.087.56252.18507a5.33109,5.33109,0,0,1,.56263.2288,1.93782,1.93782,0,0,1,.48936.32944,1.49061,1.49061,0,0,1,.34541.487,1.69138,1.69138,0,0,1,.13035.69988,2.28044,2.28044,0,0,1-.15333.83928,1.93468,1.93468,0,0,1-.44825.68144,2.111,2.111,0,0,1-.72036.45734,2.65007,2.65007,0,0,1-.97416.1669,3.155,3.155,0,0,1-.62205-.06159,3.25956,3.25956,0,0,1-.58767-.17628,3.12133,3.12133,0,0,1-.52828-.27445,2.54419,2.54419,0,0,1-.43918-.35667l.36135-.59015a.38314.38314,0,0,1,.11895-.10726.29776.29776,0,0,1,.1555-.04345.43519.43519,0,0,1,.247.09377q.13259.09365.31556.2079a2.46018,2.46018,0,0,0,.42775.20819,1.64568,1.64568,0,0,0,.58767.09377,1.2068,1.2068,0,0,0,.81416-.24916.89548.89548,0,0,0,.28819-.71582.66473.66473,0,0,0-.13035-.42541,1.05085,1.05085,0,0,0-.34541-.27664,2.57567,2.57567,0,0,0-.48936-.19q-.27452-.07755-.558-.16913a4.84043,4.84043,0,0,1-.558-.21945,1.81057,1.81057,0,0,1-.4895-.33412,1.51547,1.51547,0,0,1-.34527-.51454,1.96,1.96,0,0,1-.13035-.76147,1.83034,1.83034,0,0,1,.56252-1.31256,2.05174,2.05174,0,0,1,.67691-.42544,2.4871,2.4871,0,0,1,.924-.16,3.08843,3.08843,0,0,1,1.07937.18287,2.44116,2.44116,0,0,1,.84164.51231Z"/><path class="cls-3" d="M110.40371,47.55272a2.56083,2.56083,0,0,1,.94916.16938,2.079,2.079,0,0,1,.73179.48015,2.11128,2.11128,0,0,1,.46886.75927,3.14455,3.14455,0,0,1,0,2.008,2.15917,2.15917,0,0,1-.46886.76367,2.0495,2.0495,0,0,1-.73179.48483,2.56139,2.56139,0,0,1-.94916.1691,2.5913,2.5913,0,0,1-.95588-.1691,2.04419,2.04419,0,0,1-.7341-.48483,2.18169,2.18169,0,0,1-.47109-.76367,3.10285,3.10285,0,0,1,0-2.008,2.133,2.133,0,0,1,.47109-.75927,2.07348,2.07348,0,0,1,.7341-.48015A2.59073,2.59073,0,0,1,110.40371,47.55272Zm0,3.96547a.99336.99336,0,0,0,.86682-.39325,1.97183,1.97183,0,0,0,.28132-1.15252,1.99406,1.99406,0,0,0-.28132-1.15717.98913.98913,0,0,0-.86682-.39793,1.00884,1.00884,0,0,0-.88039.40012,1.9717,1.9717,0,0,0-.28588,1.155,1.94983,1.94983,0,0,0,.28588,1.15033A1.0133,1.0133,0,0,0,110.40371,51.51819Z"/><path class="cls-3" d="M115.02781,45.52212v6.7966h-1.12969v-6.7966Z"/><path class="cls-3" d="M120.50261,47.62585v4.69286H119.812a.26578.26578,0,0,1-.28351-.20571l-.07783-.37509a2.52507,2.52507,0,0,1-.63579.47325,1.752,1.752,0,0,1-.81869.18067,1.66661,1.66661,0,0,1-.67924-.13035,1.35953,1.35953,0,0,1-.49623-.36822,1.61,1.61,0,0,1-.30416-.56483,2.39,2.39,0,0,1-.10284-.72022V47.62585h1.12969v2.98238a1.00206,1.00206,0,0,0,.199.66547.73747.73747,0,0,0,.59687.23542,1.19377,1.19377,0,0,0,.54889-.13035,1.91993,1.91993,0,0,0,.48483-.35915V47.62585Z"/><path class="cls-3" d="M126.65432,52.31871h-1.12969V48.472h-2.17715v2.5432a.505.505,0,0,0,.10737.3429.37009.37009,0,0,0,.29509.12348.53175.53175,0,0,0,.17611-.025.9922.9922,0,0,0,.12348-.05252c.03492-.01842.06629-.036.09377-.0528a.15641.15641,0,0,1,.08223-.025.12932.12932,0,0,1,.08237.025.387.387,0,0,1,.06863.07564l.33851.54889a1.711,1.711,0,0,1-.56719.311,2.11144,2.11144,0,0,1-.66314.105,1.23188,1.23188,0,0,1-.93995-.34538,1.33057,1.33057,0,0,1-.3271-.95344V48.472h-.48015a.22023.22023,0,0,1-.15553-.05939.23156.23156,0,0,1-.06406-.17848v-.448l.75474-.12816.23773-1.27626a.25168.25168,0,0,1,.0869-.14164.25893.25893,0,0,1,.16473-.05032h.58547v1.47729h3.30684Zm.19664-6.07858a.65885.65885,0,0,1-.05942.27667.73509.73509,0,0,1-.391.37976.72856.72856,0,0,1-.28588.05691.66722.66722,0,0,1-.27445-.05691.744.744,0,0,1-.22412-.15344.73138.73138,0,0,1-.1533-.22632.68113.68113,0,0,1-.05708-.27667.69276.69276,0,0,1,.05708-.28132.76629.76629,0,0,1,.1533-.2288.72482.72482,0,0,1,.22412-.15536.66294.66294,0,0,1,.27445-.05722.73741.73741,0,0,1,.51907.21258.77951.77951,0,0,1,.15784.2288A.67.67,0,0,1,126.851,46.24014Z"/><path class="cls-3" d="M130.18531,47.55272a2.5608,2.5608,0,0,1,.94915.16938,2.07881,2.07881,0,0,1,.73176.48015,2.11129,2.11129,0,0,1,.46889.75927,3.14506,3.14506,0,0,1,0,2.008,2.15918,2.15918,0,0,1-.46889.76367,2.04934,2.04934,0,0,1-.73176.48483,2.56135,2.56135,0,0,1-.94915.1691,2.59122,2.59122,0,0,1-.95589-.1691,2.04434,2.04434,0,0,1-.73413-.48483,2.18167,2.18167,0,0,1-.47106-.76367,3.10285,3.10285,0,0,1,0-2.008,2.13294,2.13294,0,0,1,.47106-.75927,2.07364,2.07364,0,0,1,.73413-.48015A2.59065,2.59065,0,0,1,130.18531,47.55272Zm0,3.96547a.99331.99331,0,0,0,.86678-.39325,1.97183,1.97183,0,0,0,.28132-1.15252,1.99406,1.99406,0,0,0-.28132-1.15717.98907.98907,0,0,0-.86678-.39793,1.00893,1.00893,0,0,0-.88042.40012,1.97194,1.97194,0,0,0-.28585,1.155,1.95007,1.95007,0,0,0,.28585,1.15033A1.0134,1.0134,0,0,0,130.18531,51.51819Z"/><path class="cls-3" d="M134.72236,48.20226a3.04613,3.04613,0,0,1,.29962-.2629,1.90163,1.90163,0,0,1,.33383-.206,1.84537,1.84537,0,0,1,.81647-.18067,1.68293,1.68293,0,0,1,.68158.13035,1.3471,1.3471,0,0,1,.49623.366,1.60893,1.60893,0,0,1,.30182.56263,2.39019,2.39019,0,0,1,.103.72022v2.98677h-1.12983V49.33194a1.01091,1.01091,0,0,0-.19661-.6655.73647.73647,0,0,0-.59921-.23539,1.17752,1.17752,0,0,0-.54878.13255,1.96841,1.96841,0,0,0-.4848.36135v3.39376h-1.12983V47.62585h.69065a.27771.27771,0,0,1,.28819.206Z"/><path class="cls-3" d="M141.9903,48.54079a.30249.30249,0,0,1-.09611.10284.24887.24887,0,0,1-.128.02971.40322.40322,0,0,1-.17614-.04565q-.09386-.04579-.21726-.10287a1.984,1.984,0,0,0-.28132-.10312,1.3572,1.3572,0,0,0-.37275-.04565.85767.85767,0,0,0-.52374.1419.4413.4413,0,0,0-.18974.37041.35332.35332,0,0,0,.09831.25383.88467.88467,0,0,0,.26071.18067,2.5099,2.5099,0,0,0,.36821.13942q.20583.06188.41854.135t.4184.16693a1.46651,1.46651,0,0,1,.36825.23787,1.04762,1.04762,0,0,1,.359.83024,1.58467,1.58467,0,0,1-.12114.62422,1.348,1.348,0,0,1-.359.49392,1.69356,1.69356,0,0,1-.58781.32477,2.75517,2.75517,0,0,1-1.28068.07313,2.76993,2.76993,0,0,1-.44357-.12126,2.44018,2.44018,0,0,1-.39336-.18287,1.89935,1.89935,0,0,1-.3179-.2288l.26068-.42983a.36735.36735,0,0,1,.119-.11881.33306.33306,0,0,1,.1738-.04125.36553.36553,0,0,1,.19895.05942q.09365.05939.21725.12816a1.94944,1.94944,0,0,0,.29041.12813,1.27884,1.27884,0,0,0,.42307.05942,1.09392,1.09392,0,0,0,.34541-.04813.73038.73038,0,0,0,.23773-.12568.47422.47422,0,0,0,.13723-.18067.54247.54247,0,0,0,.04345-.21286.37914.37914,0,0,0-.09831-.26977.85912.85912,0,0,0-.2607-.18287,2.50881,2.50881,0,0,0-.37041-.1397q-.20833-.06146-.42544-.13474a3.87458,3.87458,0,0,1-.42527-.17161,1.44213,1.44213,0,0,1-.37056-.24916,1.1279,1.1279,0,0,1-.2607-.3707,1.29162,1.29162,0,0,1-.09831-.53045,1.35338,1.35338,0,0,1,.11424-.54892,1.29148,1.29148,0,0,1,.3362-.45512,1.67256,1.67256,0,0,1,.55342-.311,2.31094,2.31094,0,0,1,.76614-.11658,2.3454,2.3454,0,0,1,.88275.16,1.99918,1.99918,0,0,1,.66328.421Z"/></svg>